<svg width="20" height="21" viewBox="0 0 20 21" fill="none" xmlns="http://www.w3.org/2000/svg">
<path d="M14.9362 20.05C13.5806 19.8965 12.3848 19.5353 11.2626 18.9662C6.28783 16.4404 2.6047 12.6933 0.529735 7.46596C0.270765 6.81374 0.146076 6.10397 0.018189 5.41018C-0.0297684 5.14482 0.018189 4.80912 0.149273 4.57572C1.03489 2.99952 2.16029 1.60556 3.55745 0.448183C4.38552 -0.23601 5.07291 -0.140094 5.66118 0.758309C6.4381 1.94446 7.15746 3.16577 7.88961 4.3775C8.0111 4.57892 8.07185 4.81231 8.16776 5.02652C8.43952 5.64677 8.27966 6.16471 7.79369 6.60273C7.46119 6.90006 7.13188 7.2006 6.78659 7.47875C6.61074 7.62262 6.55639 7.74411 6.64591 7.97111C7.66261 10.5608 9.45942 12.3672 12.0619 13.3583C12.1802 13.4031 12.4072 13.336 12.5063 13.24C12.8516 12.8979 13.1521 12.5111 13.4846 12.1562C13.8875 11.7278 14.3767 11.5743 14.9202 11.8365C15.7674 12.2489 16.6115 12.6741 17.4299 13.1409C18.0694 13.5054 18.6704 13.937 19.2779 14.3558C19.9333 14.8098 20.3617 15.5484 19.5944 16.4436C18.4051 17.8312 17.0175 18.9758 15.4349 19.8806C15.2559 19.9797 15.0449 20.0148 14.9362 20.05Z" fill="#6366F1"/>
<path d="M10.6797 1.99237C10.6797 1.54797 10.6797 1.13553 10.6797 0.723099C14.8008 0.470523 19.3824 4.17923 19.3248 9.32347C18.9028 9.32347 18.4808 9.32347 18.0236 9.32347C17.9628 7.32524 17.2754 5.57959 15.8527 4.16005C14.4428 2.7501 12.7131 2.05312 10.6797 1.99237Z" fill="#6366F1"/>
<path d="M15.9941 9.33291C15.5529 9.33291 15.1404 9.33291 14.6896 9.33291C14.6289 8.25867 14.274 7.30271 13.5035 6.529C12.7298 5.75529 11.7866 5.37482 10.6836 5.33006C10.6836 4.88566 10.6836 4.46043 10.6836 4.03841C13.2317 3.91052 16.0037 6.15173 15.9941 9.33291Z" fill="#6366F1"/>
</svg>
