<svg width="25" height="24" viewBox="0 0 25 24" fill="none" xmlns="http://www.w3.org/2000/svg">
<path d="M17.0602 22.0263C15.7046 21.8728 14.5089 21.5116 13.3868 20.9425C8.41213 18.4136 4.72912 14.6667 2.65423 9.43947C2.39527 8.78727 2.27058 8.07752 2.1427 7.38376C2.09474 7.1184 2.1427 6.78271 2.27378 6.54933C3.15936 4.97318 4.28473 3.57926 5.67865 2.42192C6.50668 1.73775 7.19405 1.83366 7.78231 2.73204C8.5592 3.91815 9.27853 5.13942 10.0107 6.35111C10.1321 6.55252 10.1929 6.78591 10.2888 7.00011C10.5606 7.62034 10.4007 8.13826 9.91475 8.57626C9.58225 8.87359 9.25296 9.17411 8.90767 9.45225C8.73184 9.59612 8.67749 9.71761 8.767 9.9446C9.78367 12.5342 11.5804 14.3406 14.1828 15.3316C14.3011 15.3764 14.5281 15.3093 14.6272 15.2134C14.9725 14.8713 15.273 14.4844 15.6055 14.1296C16.0083 13.7011 16.4975 13.5477 17.041 13.8098C17.8882 14.2223 18.7322 14.6475 19.5507 15.1142C20.1901 15.4787 20.7911 15.9103 21.3986 16.3291C22.054 16.7831 22.4824 17.5216 21.7151 18.4168C20.5258 19.8043 19.1383 20.9489 17.5557 21.8536C17.3799 21.9559 17.1689 21.9879 17.0602 22.0263ZM6.593 3.35866C5.38771 4.43607 4.38384 5.62218 3.53662 6.93937C3.46628 7.05126 3.4471 7.23669 3.48227 7.36777C3.69008 8.12867 3.84673 8.91835 4.15685 9.63768C5.74898 13.3207 8.35778 16.1597 11.6284 18.4136C13.1726 19.4782 14.8382 20.2999 16.7117 20.6228C16.8524 20.6484 17.0378 20.6579 17.1465 20.5908C18.4797 19.7436 19.6722 18.7301 20.7272 17.5504C20.692 17.4993 20.6728 17.4545 20.6409 17.4353C19.3557 16.6648 18.0704 15.8943 16.7724 15.143C16.6861 15.0951 16.4591 15.175 16.3728 15.2645C15.9668 15.6833 15.5895 16.1309 15.1995 16.5625C14.9597 16.8279 14.6752 16.895 14.3299 16.7863C10.7907 15.6577 8.45369 13.3239 7.32193 9.78155C7.21323 9.43627 7.28357 9.15173 7.54893 8.91195C7.98373 8.52191 8.42812 8.14146 8.84693 7.73543C8.93965 7.64592 9.01318 7.42852 8.96842 7.32941C8.32901 5.93549 7.54573 4.62789 6.593 3.35866Z" fill="#414357"/>
<path d="M12.8049 3.96902C12.8049 3.52462 12.8049 3.1122 12.8049 2.69978C16.9259 2.44722 21.5073 6.1558 21.4498 11.2999C21.0278 11.2999 20.6058 11.2999 20.1486 11.2999C20.0878 9.30171 19.4005 7.55611 17.9778 6.13662C16.5679 4.72672 14.8383 4.02976 12.8049 3.96902Z" fill="#414357"/>
<path d="M18.1184 11.3099C17.6772 11.3099 17.2648 11.3099 16.814 11.3099C16.7533 10.2357 16.3984 9.27978 15.6279 8.50609C14.8542 7.7324 13.9111 7.35195 12.8081 7.30719C12.8081 6.8628 12.8081 6.43759 12.8081 6.01558C15.3562 5.8877 18.128 8.12884 18.1184 11.3099Z" fill="#414357"/>
</svg>
