<svg width="20" height="20" viewBox="0 0 20 20" fill="none" xmlns="http://www.w3.org/2000/svg">
<g clip-path="url(#clip0_453_796)">
<path d="M17.8699 8.125H18.3699V7.625V4.745C18.3699 3.94562 17.8237 3.125 16.9499 3.125H3.05989C2.18349 3.125 1.63989 3.94873 1.63989 4.755V7.625V8.125H2.13989H17.8699ZM2.13989 8.375H1.63989V8.875V15.255C1.63989 16.0544 2.18603 16.875 3.05989 16.875H16.9499C17.8169 16.875 18.3599 16.0506 18.3599 15.255V8.875V8.375H17.8599H2.13989ZM3.05989 2.875H16.9499C17.8182 2.875 18.6107 3.6736 18.6199 4.75692V15.255C18.6199 16.3342 17.8305 17.135 16.9499 17.135H3.05989C2.1793 17.135 1.38989 16.3342 1.38989 15.255V4.755C1.38989 3.6758 2.1793 2.875 3.05989 2.875Z" fill="#8A8A8A" stroke="#92939E"/>
<path d="M3.99988 12.875H6.99988C7.06849 12.875 7.11988 12.9259 7.11988 12.995C7.11988 13.0589 7.06374 13.115 6.99988 13.115H3.99988C3.93603 13.115 3.87988 13.0589 3.87988 12.995C3.87988 12.9311 3.93603 12.875 3.99988 12.875Z" fill="#8A8A8A" stroke="#92939E"/>
</g>
<defs>
<clipPath id="clip0_453_796">
<rect width="18.22" height="15.25" fill="white" transform="translate(0.889893 2.375)"/>
</clipPath>
</defs>
</svg>
