<svg width="21" height="20" viewBox="0 0 21 20" fill="none" xmlns="http://www.w3.org/2000/svg">
<path d="M3.35376 3.88727C3.00423 3.24838 2.92115 2.62667 3.07586 1.98491C3.52566 0.125531 5.7489 -0.625097 7.2301 0.595391C7.89191 1.1426 8.51361 1.74139 9.14964 2.31439C10.3529 1.48927 10.9489 1.48927 12.0949 2.31725C12.7309 1.74425 13.3526 1.14547 14.0144 0.598256C15.5071 -0.633692 17.7504 0.136991 18.1772 2.01929C18.3205 2.64673 18.2374 3.25984 17.8879 3.88727C18.3778 3.88727 18.8133 3.8844 19.2488 3.88727C20.1054 3.89586 20.6297 4.42302 20.6383 5.28252C20.644 5.85552 20.6411 6.43138 20.6383 7.00438C20.6354 7.56019 20.4033 7.80085 19.8619 7.80085C13.7079 7.80372 7.55384 7.80372 1.39983 7.80085C0.849756 7.80085 0.614826 7.56306 0.611961 7.01584C0.609096 6.41706 0.603366 5.81541 0.611961 5.21663C0.623421 4.43448 1.1649 3.89873 1.94991 3.88727C2.39399 3.88154 2.8352 3.88727 3.35376 3.88727ZM8.73995 3.8844C8.63108 3.70677 8.5881 3.58644 8.50502 3.50909C7.82602 2.88166 7.14415 2.25709 6.45082 1.64398C5.99815 1.24288 5.42515 1.1999 4.93237 1.49786C4.45965 1.78436 4.22472 2.34017 4.35078 2.87593C4.48543 3.45179 4.94383 3.86435 5.54548 3.87867C6.57115 3.89873 7.59968 3.8844 8.73995 3.8844ZM12.5074 3.8844C13.6391 3.8844 14.6418 3.89873 15.6417 3.87867C16.2692 3.86721 16.7619 3.45179 16.8966 2.89312C17.0284 2.34877 16.8078 1.80155 16.3351 1.50932C15.8222 1.19131 15.2464 1.24574 14.7536 1.68122C14.0803 2.27714 13.4185 2.88166 12.7595 3.4919C12.6707 3.57498 12.622 3.70391 12.5074 3.8844Z" fill="#6366F1"/>
<path d="M1.9432 9.13281C4.3985 9.13281 6.82802 9.13281 9.28332 9.13281C9.28332 12.7456 9.28332 16.3469 9.28332 19.9997C9.15153 19.9997 9.02547 19.9997 8.90227 19.9997C7.07727 19.9997 5.25514 19.9997 3.43014 19.9997C2.42166 19.9997 1.92315 19.4984 1.92315 18.4842C1.92028 15.5017 1.92315 12.5164 1.92315 9.53391C1.92315 9.40785 1.93461 9.28179 1.9432 9.13281Z" fill="#6366F1"/>
<path d="M11.9609 9.13281C14.4105 9.13281 16.84 9.13281 19.3268 9.13281C19.3268 9.27893 19.3268 9.41645 19.3268 9.55397C19.3268 12.525 19.3268 15.496 19.3268 18.467C19.3268 19.507 18.8341 19.9997 17.7969 19.9997C15.9863 19.9997 14.1756 19.9997 12.3649 19.9997C12.2388 19.9997 12.1099 19.9883 11.9609 19.9825C11.9609 16.3583 11.9609 12.757 11.9609 9.13281Z" fill="#6366F1"/>
</svg>
