<svg width="21" height="20" viewBox="0 0 21 20" fill="none" xmlns="http://www.w3.org/2000/svg">
<path d="M1.92972 9.10853C1.70627 9.10853 1.52867 9.11426 1.35106 9.10853C0.869795 9.08848 0.6263 8.85358 0.620571 8.38091C0.614842 7.52152 0.606248 6.66212 0.623436 5.80273C0.643488 4.73708 1.48283 3.91492 2.55135 3.89201C2.79484 3.88628 3.03547 3.89201 3.33053 3.89201C3.02401 3.24746 2.92661 2.62583 3.08417 1.98415C3.53679 0.145043 5.73111 -0.605495 7.2064 0.58047C7.69339 0.972927 8.14028 1.41408 8.60435 1.83232C8.71894 1.93545 8.83352 2.03571 8.94525 2.13598C10.0252 0.918499 11.3802 1.06746 12.294 2.1417C12.8211 1.66331 13.3425 1.17918 13.8782 0.709379C14.6688 0.0132691 15.5683 -0.187256 16.5652 0.182283C17.9116 0.683597 18.5705 2.15889 18.0663 3.51101C18.0262 3.61986 17.9861 3.72586 17.9259 3.89201C18.2153 3.89201 18.4673 3.88628 18.7223 3.89201C19.7536 3.92065 20.5929 4.72275 20.6216 5.7483C20.6473 6.63348 20.6359 7.51865 20.6273 8.4067C20.6244 8.83926 20.3838 9.07989 19.9512 9.10853C19.7593 9.12286 19.5645 9.1114 19.3181 9.1114C19.3181 9.30047 19.3181 9.45229 19.3181 9.60412C19.3181 12.3255 19.2838 15.0498 19.3325 17.7712C19.3554 19.152 18.3814 20.0085 17.098 19.9999C12.7724 19.9684 8.44966 19.9885 4.12404 19.9885C2.7089 19.9885 1.92972 19.2093 1.92972 17.7856C1.92972 15.0641 1.92972 12.3399 1.92972 9.61844C1.92972 9.46089 1.92972 9.30906 1.92972 9.10853ZM8.65305 9.14005C6.834 9.14005 5.04646 9.14005 3.25032 9.14005C3.23886 9.22026 3.2274 9.27182 3.2274 9.32052C3.2274 12.1852 3.22167 15.0498 3.2274 17.9145C3.2274 18.4416 3.47376 18.665 4.00659 18.6679C5.43891 18.6707 6.87124 18.6707 8.30356 18.6679C8.41529 18.6679 8.52701 18.6535 8.65305 18.645C8.65305 15.4681 8.65305 12.3227 8.65305 9.14005ZM12.5919 18.6679C14.1102 18.6679 15.5912 18.6679 17.0751 18.6679C17.8371 18.6679 18.0205 18.4845 18.0205 17.7254C18.0205 15.004 18.0205 12.2826 18.0205 9.56115C18.0205 9.42078 18.0205 9.28328 18.0205 9.13718C16.1785 9.13718 14.3909 9.13718 12.5919 9.13718C12.5919 12.3169 12.5919 15.4652 12.5919 18.6679ZM8.64732 5.19256C8.43247 5.19256 8.26632 5.19256 8.09731 5.19256C6.30117 5.19256 4.5079 5.18969 2.71177 5.19542C2.24483 5.19542 1.96409 5.37589 1.94977 5.74257C1.92399 6.4129 1.94117 7.08609 1.94117 7.77647C4.19279 7.77647 6.41003 7.77647 8.64732 7.77647C8.64732 6.91994 8.64732 6.0806 8.64732 5.19256ZM12.5977 7.76501C14.8607 7.76501 17.078 7.76501 19.2924 7.76501C19.301 7.6934 19.3124 7.65616 19.3124 7.61605C19.3153 7.09469 19.3153 6.57618 19.3153 6.05482C19.3124 5.38735 19.1205 5.19256 18.4587 5.19256C16.6368 5.18969 14.8178 5.19256 12.9959 5.19256C12.8698 5.19256 12.7438 5.20402 12.6005 5.21261C12.5977 6.0806 12.5977 6.91708 12.5977 7.76501ZM10.008 9.13145C10.008 12.3313 10.008 15.4881 10.008 18.645C10.4377 18.645 10.833 18.645 11.2427 18.645C11.2427 15.4652 11.2427 12.3083 11.2427 9.13145C10.8245 9.13145 10.4263 9.13145 10.008 9.13145ZM8.92233 3.87768C8.01996 3.06412 7.21213 2.31358 6.37852 1.58883C5.94882 1.21642 5.37016 1.21929 4.89176 1.5258C4.44774 1.81227 4.23003 2.32791 4.34175 2.84068C4.46207 3.40502 4.89177 3.84904 5.46756 3.86622C6.57904 3.90346 7.69339 3.87768 8.92233 3.87768ZM12.4 3.8032C12.4115 3.83185 12.4201 3.86049 12.4315 3.88914C12.5318 3.88914 12.632 3.88914 12.7352 3.88914C13.7349 3.88628 14.7376 3.90346 15.7373 3.87482C16.3017 3.85763 16.7486 3.44799 16.8832 2.91802C17.0207 2.37947 16.8259 1.85237 16.3819 1.54872C15.9121 1.22788 15.3191 1.20496 14.8951 1.56877C14.0472 2.29353 13.2308 3.05553 12.4 3.8032ZM11.2513 5.2212C10.8101 5.2212 10.4148 5.2212 10.0023 5.2212C10.0023 6.08346 10.0023 6.92281 10.0023 7.77074C10.432 7.77074 10.8388 7.77074 11.2513 7.77074C11.2513 6.91135 11.2513 6.0806 11.2513 5.2212ZM11.2484 3.08417C11.1482 2.74615 10.9276 2.58 10.6125 2.58573C10.3002 2.59145 10.0882 2.76333 9.99657 3.0899C10.2086 3.27897 10.4091 3.45944 10.6239 3.65138C10.8474 3.44512 11.0479 3.26465 11.2484 3.08417Z" fill="#414357"/>
</svg>
