<svg width="25" height="26" viewBox="0 0 25 26" fill="none" xmlns="http://www.w3.org/2000/svg">
<path d="M22.015 4.76815C21.4653 4.20759 20.8125 3.76292 20.0941 3.45954C19.3756 3.15615 18.6055 3 17.8279 3C17.0502 3 16.2801 3.15615 15.5617 3.45954C14.8432 3.76292 14.1905 4.20759 13.6407 4.76815L12.4997 5.93095L11.3587 4.76815C10.2482 3.6364 8.74205 3.00059 7.17156 3.00059C5.60106 3.00059 4.09489 3.6364 2.98438 4.76815C1.87388 5.89989 1.25 7.43487 1.25 9.03541C1.25 10.6359 1.87388 12.1709 2.98438 13.3027L4.12536 14.4655L12.4997 23L20.8741 14.4655L22.015 13.3027C22.5651 12.7424 23.0014 12.0771 23.2991 11.3449C23.5968 10.6128 23.75 9.82796 23.75 9.03541C23.75 8.24285 23.5968 7.45806 23.2991 6.72587C23.0014 5.99368 22.5651 5.32844 22.015 4.76815Z" stroke="#414357" stroke-width="2" stroke-linecap="round" stroke-linejoin="round"/>
</svg>
