<svg width="25" height="25" viewBox="0 0 25 25" fill="none" xmlns="http://www.w3.org/2000/svg">
<path d="M12.4936 22.7746C12.2936 22.7746 12.0936 22.6996 11.9436 22.5496L2.74355 13.3371C1.50605 12.1121 0.831055 10.4746 0.831055 8.73711C0.831055 6.99961 1.50605 5.36211 2.74355 4.13711C3.96855 2.89961 5.60605 2.22461 7.34355 2.22461C9.08105 2.22461 10.7186 2.89961 11.9436 4.13711L12.4936 4.68711L13.0436 4.13711C13.6561 3.52461 14.3686 3.04961 15.1561 2.72461C16.7436 2.06211 18.5561 2.06211 20.1436 2.72461C20.9311 3.04961 21.6436 3.52461 22.2561 4.13711C22.8686 4.74961 23.3436 5.46211 23.6686 6.24961C23.9936 7.03711 24.1686 7.88711 24.1686 8.73711C24.1686 9.58711 24.0061 10.4371 23.6686 11.2246C23.3436 12.0121 22.8686 12.7246 22.2561 13.3371L13.0436 22.5496C12.8936 22.6996 12.6936 22.7746 12.4936 22.7746Z" fill="#FF3B3B"/>
</svg>
