<svg width="22" height="20" viewBox="0 0 22 20" fill="none" xmlns="http://www.w3.org/2000/svg">
<path d="M18.8533 11.4005C18.8533 11.0478 18.8633 10.6951 18.8519 10.3423C18.816 9.3431 18.8863 8.32561 18.7056 7.34748C18.2339 4.79815 16.6122 2.98664 14.0156 1.9818C11.5179 1.01491 9.0474 1.22852 6.76763 2.56784C4.52513 3.88326 3.31929 5.80861 3.17018 8.23989C3.10852 9.2391 3.1544 10.2439 3.15154 11.246C3.15154 11.3008 3.16157 11.3556 3.24043 11.4301C3.29348 11.3556 3.35084 11.2825 3.39672 11.2038C3.86414 10.4027 4.59683 9.9994 5.59046 9.98956C6.05932 9.98535 6.52818 9.98394 6.99704 9.98956C7.97921 10.0008 8.6402 10.5953 8.64306 11.4905C8.65023 13.822 8.6488 16.1549 8.64306 18.4864C8.6402 19.3872 7.98781 19.9789 7.00421 19.9915C6.52388 19.9972 6.04498 19.9986 5.56465 19.9915C4.58392 19.9775 3.85267 19.5812 3.40819 18.7801C3.31499 18.6129 3.21032 18.5553 3.00815 18.5595C2.40882 18.5721 1.80805 18.5904 1.25889 18.3009C0.453087 17.8779 0.031544 17.2441 0.0143382 16.4051C-0.00430146 15.4522 -0.00573528 14.4994 0.015772 13.5479C0.0372793 12.6921 0.481763 12.0498 1.32342 11.6648C1.53992 11.5664 1.58437 11.4497 1.5858 11.2516C1.59011 10.1301 1.55283 9.00581 1.63455 7.88995C1.77507 5.96882 2.57227 4.28098 4.00753 2.85031C6.13962 0.72681 8.79648 -0.23727 11.9208 0.049424C15.3132 0.360009 17.8109 1.97056 19.4082 4.71242C20.1265 5.94633 20.4162 7.28143 20.4233 8.67133C20.4276 9.54406 20.4305 10.4182 20.419 11.2909C20.4162 11.4764 20.4821 11.5692 20.6642 11.6535C21.5446 12.0583 21.9819 12.7258 21.9919 13.6182C22.002 14.5317 22.0034 15.4438 21.9919 16.3573C21.9747 17.6333 20.9725 18.5637 19.5716 18.5524C19.0239 18.5482 18.6583 18.6143 18.3543 19.1132C17.9944 19.7034 17.3119 19.9676 16.5578 19.9887C16.0129 20.0028 15.4666 20.0042 14.9218 19.9901C14.0271 19.9676 13.3689 19.3816 13.3632 18.5665C13.3503 16.1844 13.3503 13.8037 13.3632 11.4216C13.3675 10.5981 14.04 10.012 14.9519 9.99237C15.4422 9.98254 15.9326 9.98535 16.4244 9.99097C17.4051 10.0022 18.1307 10.4013 18.5966 11.1883C18.6454 11.2713 18.6999 11.35 18.7515 11.4315C18.7859 11.4202 18.8203 11.4104 18.8533 11.4005ZM7.0673 11.4188C6.57406 11.4188 6.11811 11.4174 5.66215 11.4188C5.00977 11.4216 4.723 11.6774 4.72157 12.2677C4.72013 13.2205 4.72157 14.1719 4.72157 15.1248C4.72157 16.0172 4.7187 16.9096 4.723 17.802C4.72587 18.2067 4.96532 18.5173 5.36679 18.5426C5.92598 18.5777 6.4909 18.551 7.06586 18.551C7.0673 16.1704 7.0673 13.8136 7.0673 11.4188ZM14.9375 18.5637C15.3017 18.5637 15.6286 18.551 15.9541 18.5665C17.008 18.6157 17.3134 18.4147 17.2919 17.3537C17.2575 15.649 17.2833 13.9414 17.2818 12.2367C17.2818 11.7926 17.0696 11.475 16.6639 11.4455C16.0946 11.4034 15.5197 11.4357 14.9375 11.4357C14.9375 13.815 14.9375 16.1718 14.9375 18.5637ZM3.13003 17.1316C3.13003 15.6855 3.13003 14.2745 3.13003 12.8481C2.85617 12.8481 2.60668 12.8396 2.3572 12.8495C1.90841 12.8663 1.59154 13.139 1.58724 13.5479C1.57433 14.5092 1.57577 15.4719 1.58724 16.4332C1.59154 16.8267 1.89551 17.1049 2.32566 17.1288C2.58374 17.1443 2.8447 17.1316 3.13003 17.1316ZM18.8648 17.133C19.153 17.133 19.4039 17.1415 19.6534 17.1316C20.0907 17.1119 20.4104 16.8463 20.4162 16.4585C20.4305 15.4873 20.4276 14.5148 20.4176 13.5437C20.4133 13.1966 20.1609 12.9113 19.8025 12.8706C19.4971 12.8354 19.1816 12.8635 18.8662 12.8635C18.8648 14.2928 18.8648 15.6982 18.8648 17.133Z" fill="#414357"/>
</svg>
