<svg width="22" height="20" viewBox="0 0 22 20" fill="none" xmlns="http://www.w3.org/2000/svg">
<path d="M18.6982 11.399C18.6982 11.0462 18.7081 10.6935 18.6968 10.3407C18.6617 9.34149 18.7306 8.32399 18.5535 7.34583C18.0911 4.79646 16.5016 2.98491 13.9564 1.98005C11.5083 1.01314 9.08676 1.22676 6.85219 2.5661C4.65416 3.88295 3.47223 5.80834 3.32607 8.23966C3.26564 9.2389 3.31061 10.2438 3.3078 11.2458C3.3078 11.3006 3.31764 11.3554 3.39493 11.4299C3.44693 11.3554 3.50315 11.2823 3.54812 11.2036C4.00628 10.4026 4.72443 9.99921 5.69837 9.98937C6.15793 9.98516 6.61749 9.98375 7.07705 9.98937C8.03975 10.0006 8.68763 10.5951 8.69044 11.4903C8.69747 13.8219 8.69607 16.1548 8.69044 18.4864C8.68763 19.3872 8.04818 19.9789 7.08408 19.9915C6.61328 19.9972 6.14388 19.9986 5.67307 19.9915C4.71178 19.9775 3.99503 19.5812 3.55936 18.7801C3.46801 18.6129 3.36542 18.5552 3.16726 18.5594C2.57981 18.5721 1.99095 18.5904 1.45268 18.3009C0.662854 17.8778 0.249668 17.244 0.232803 16.405C0.214533 15.4521 0.213129 14.4993 0.23421 13.5478C0.253885 12.6919 0.689557 12.0497 1.51452 11.6646C1.72673 11.5662 1.7703 11.4496 1.77171 11.2514C1.77592 10.1299 1.73938 9.0056 1.81949 7.88972C1.95722 5.96855 2.73861 4.28068 4.14541 2.84999C6.23523 0.726444 8.83942 -0.236249 11.9018 0.0490454C15.2269 0.359637 17.6751 1.97021 19.2407 4.71213C19.9448 5.94607 20.2287 7.28119 20.2357 8.67112C20.2399 9.54387 20.2428 10.418 20.2315 11.2908C20.2287 11.4763 20.2933 11.569 20.4718 11.6534C21.3347 12.0581 21.7634 12.7257 21.7732 13.6181C21.7831 14.5316 21.7845 15.4437 21.7732 16.3572C21.7564 17.6333 20.774 18.5637 19.4009 18.5524C18.8641 18.5482 18.5057 18.6143 18.2077 19.1132C17.855 19.7034 17.186 19.9677 16.4468 19.9887C15.9127 20.0028 15.3773 20.0042 14.8432 19.9901C13.9663 19.9676 13.3212 19.3816 13.3156 18.5665C13.3029 16.1843 13.3029 13.8036 13.3156 11.4215C13.3198 10.5979 13.9789 10.0119 14.8728 9.99219C15.3534 9.98235 15.834 9.98516 16.3161 9.99078C17.2774 10.002 17.9885 10.4012 18.4453 11.1882C18.493 11.2711 18.5464 11.3498 18.597 11.4313C18.6322 11.4187 18.6645 11.4088 18.6982 11.399ZM3.28531 17.1302C3.28531 15.684 3.28531 14.273 3.28531 12.8465C3.01688 12.8465 2.77234 12.8381 2.52781 12.8479C2.08792 12.8648 1.77733 13.1375 1.77311 13.5464C1.76046 14.5077 1.76187 15.4704 1.77311 16.4317C1.77733 16.8252 2.07527 17.1035 2.49689 17.1274C2.75126 17.1428 3.00704 17.1302 3.28531 17.1302ZM18.7095 17.1316C18.992 17.1316 19.2379 17.14 19.4824 17.1302C19.9111 17.1105 20.2245 16.8449 20.2301 16.457C20.2442 15.4859 20.2414 14.5133 20.2315 13.5422C20.2273 13.1951 19.9799 12.9098 19.6286 12.869C19.3293 12.8339 19.0201 12.862 18.7109 12.862C18.7095 14.2913 18.7095 15.6967 18.7095 17.1316Z" fill="#6366F1"/>
</svg>
