<svg width="25" height="26" viewBox="0 0 25 26" fill="none" xmlns="http://www.w3.org/2000/svg">
<path d="M17.5108 6.33813C17.5108 5.48586 17.5212 4.71155 17.5056 3.93723C17.5004 3.52669 17.6615 3.23047 18.0357 3.06937C18.4046 2.90828 18.7165 3.04339 18.9815 3.31362C20.0468 4.37896 21.1122 5.43909 22.1671 6.50443C22.614 6.95135 22.6192 7.37228 22.1827 7.81401C21.1122 8.89493 20.0364 9.96546 18.9659 11.036C18.6801 11.327 18.3475 11.4154 17.9681 11.2543C17.6199 11.1035 17.5056 10.8021 17.5056 10.4384C17.5108 9.64846 17.5056 8.85855 17.5056 8.01668C17.3237 8.00629 17.1678 7.99589 17.0067 7.99589C13.3638 7.99589 9.71568 7.99589 6.07276 7.99589C4.82034 7.99589 4.17595 8.64549 4.16555 9.9083C4.16036 10.3968 4.18114 10.8801 4.15516 11.3634C4.12918 11.8675 3.81217 12.1585 3.34447 12.1689C2.88196 12.1741 2.52338 11.8779 2.50779 11.3894C2.487 10.6878 2.46102 9.98105 2.53897 9.29508C2.74684 7.53338 4.12398 6.34333 5.89607 6.34333C9.57017 6.33813 13.2495 6.34333 16.9236 6.34333C17.1003 6.33813 17.2821 6.33813 17.5108 6.33813Z" fill="#414357"/>
<path d="M7.49671 19.6567C7.49671 20.5089 7.49151 21.2833 7.49671 22.0576C7.50191 22.4369 7.40317 22.7591 7.0342 22.9202C6.63405 23.0917 6.30146 22.9722 6.00524 22.6708C4.9555 21.6159 3.90056 20.5661 2.85082 19.5112C2.38311 19.0435 2.37791 18.6329 2.83523 18.1704C3.88497 17.1155 4.93991 16.0657 5.98965 15.0108C6.27028 14.7302 6.57688 14.5691 6.96664 14.7354C7.36159 14.9068 7.50191 15.2238 7.49671 15.65C7.48112 16.4087 7.49151 17.1674 7.49151 17.9833C7.6682 17.9937 7.8293 18.0041 7.9904 18.0041C11.6333 18.0041 15.2814 18.0041 18.9244 18.0041C20.1768 18.0041 20.8212 17.3545 20.8316 16.0917C20.8316 15.6188 20.8212 15.1511 20.8368 14.6782C20.8576 14.1429 21.1694 13.8363 21.6527 13.8311C22.136 13.8259 22.4789 14.1325 22.4945 14.6574C22.5101 15.3382 22.5413 16.0293 22.4582 16.7049C22.2503 18.4614 20.8731 19.6567 19.1011 19.6619C15.4269 19.6671 11.7477 19.6619 8.07355 19.6619C7.90725 19.6567 7.72537 19.6567 7.49671 19.6567Z" fill="#414357"/>
</svg>
