<svg width="20" height="20" viewBox="0 0 20 20" fill="none" xmlns="http://www.w3.org/2000/svg">
<path d="M1.43184 10.006C1.43184 12.3584 1.42616 14.708 1.43752 17.0605C1.44036 17.3957 1.4773 17.7423 1.57958 18.0605C1.81539 18.8021 2.43191 19.1316 3.17912 18.91C3.49733 18.8163 3.80985 18.6543 4.08544 18.4668C7.34703 16.2365 10.6001 13.9921 13.856 11.7533C13.8958 11.7277 13.9327 11.7021 13.9725 11.6737C15.3107 10.7021 15.3249 9.26446 13.964 8.32121C10.6512 6.01991 7.3243 3.7385 3.99736 1.45709C3.44903 1.08206 2.84671 0.812155 2.1961 1.17866C1.55685 1.53948 1.43752 2.18725 1.43752 2.84923C1.42616 5.23292 1.43184 7.61945 1.43184 10.006Z" fill="#414357"/>
<path d="M18.5609 9.96666C18.5609 7.39261 18.5382 4.81572 18.5694 2.24168C18.5865 0.991589 17.5665 0.829645 16.7483 1.1308C16.3932 1.26149 16.2113 1.56833 16.1772 1.94904C16.1659 2.06553 16.1715 2.18201 16.1715 2.2985C16.1715 7.43523 16.1858 12.5748 16.1602 17.7115C16.1545 18.8366 16.9301 19.1434 17.8535 18.9417C18.3081 18.8423 18.5581 18.4587 18.5609 17.936C18.5666 16.6489 18.5638 15.3619 18.5638 14.0749C18.5609 12.7055 18.5609 11.3361 18.5609 9.96666Z" fill="#414357"/>
</svg>
