<svg width="61" height="60" viewBox="0 0 61 60" fill="none" xmlns="http://www.w3.org/2000/svg">
<rect x="0.5" width="60" height="60" rx="30" fill="#6366F1"/>
<path d="M25.5695 41.2402H25.5668C25.1617 41.2402 24.8482 41.2368 24.5716 41.1726C23.7449 40.9804 23.1897 40.2941 23.1897 39.4725L23.1897 39.4709C23.1763 33.1576 23.1763 26.8376 23.1897 20.5242V20.5226C23.1897 19.5596 23.9665 18.7792 24.9954 18.7547L24.9954 18.7548L25.0053 18.7544C25.1084 18.7506 25.195 18.7518 25.2996 18.7532C25.362 18.754 25.4307 18.7549 25.5132 18.7549C26.3368 18.7549 26.8495 18.9724 27.158 19.2783C27.4655 19.5831 27.6827 20.0875 27.6827 20.8976V20.9155V20.9334V20.9513V20.9692V20.9871V21.005V21.0229V21.0407V21.0586V21.0765V21.0944V21.1123V21.1302V21.1481V21.166V21.1839V21.2017V21.2196V21.2375V21.2554V21.2733V21.2912V21.3091V21.327V21.3449V21.3627V21.3806V21.3985V21.4164V21.4343V21.4522V21.4701V21.4879V21.5058V21.5237V21.5416V21.5595V21.5774V21.5953V21.6131V21.6847V21.7026V21.7205V21.7383V21.7562V21.7741V21.792V21.8099V21.8278V21.8456V21.8635V21.8814V21.8993V21.9172V21.9351V21.9529V21.9708V21.9887V22.0066V22.0245V22.0424V22.0602V22.0781V22.096V22.1139V22.1318V22.1497V22.1675V22.1854V22.2033V22.2212V22.2391V22.2569V22.2748V22.2927V22.3106V22.3285V22.3463V22.3642V22.3821V22.4V22.4179V22.4357V22.4536V22.4715V22.4894V22.5073V22.5251V22.543V22.5609V22.5788V22.5967V22.6145V22.6324V22.6503V22.6682V22.6861V22.7039V22.7218V22.7397V22.7576V22.7755V22.7933V22.8112V22.8291V22.847V22.8648V22.8827V22.9006V22.9185V22.9364V22.9542V22.9721V22.99V23.0079V23.0257V23.0436V23.0615V23.0794V23.0972V23.1151V23.133V23.1509V23.1688V23.1866V23.2045V23.2224V23.2403V23.2581V23.276V23.2939V23.3118V23.3296V23.3475V23.3654V23.3833V23.4011V23.419V23.4369V23.4548V23.4726V23.4905V23.5084V23.5263V23.5441V23.562V23.5799V23.5978V23.6156V23.6335V23.6514V23.6693V23.6871V23.705V23.7229V23.7408V23.7586V23.7765V23.7944V23.8123V23.8301V23.848V23.8659V23.8838V23.9016V23.9195V23.9374V23.9552V23.9731V23.991V24.0089V24.0267V24.0446V24.0625V24.0804V24.0982V24.1161V24.134V24.1519V24.1697V24.1876V24.2055V24.2233V24.2412V24.2591V24.277V24.2948V24.3127V24.3306V24.3485V24.3663V24.3842V24.4021V24.4199V24.4378V24.4557V24.4736V24.4914V24.5093V24.5272V24.545V24.5629V24.5808V24.5987V24.6165V24.6344V24.6523V24.6702V24.688V24.7059V24.7238V24.7416V24.7595V24.7774V24.7953V24.8131V24.831V24.8489V24.8667V24.8846V24.9025V24.9204V24.9382V24.9561V24.974V24.9918V25.0097V25.0276V25.0455V25.0633V25.0812V25.0991V25.1169V25.1348V25.1527V25.1706V25.1884V25.2063V25.2242V25.242V25.2599V25.2778V25.2957V25.3135V25.3314V25.3493V25.3671V25.385V25.4029V25.4208V25.4386V25.4565V25.4744V25.4922V25.5101V25.528V25.5459V25.5637V25.5816V25.5995V25.6173V25.6352V25.6531V25.671V25.6888V25.7067V25.7246V25.7424V25.7603V25.7782V25.7961V25.8139V25.8318V25.8497V25.8675V25.8854V25.9033V25.9212V25.939V25.9569V25.9748V25.9926V26.0105V26.0284V26.0463V26.0641V26.082V26.0999V26.1178V26.1356V26.1535V26.1714V26.1892V26.2071V26.225V26.2429V26.2607V26.2786V26.2965V26.3143V26.3322V26.3501V26.368V26.3858V26.4037V26.4216V26.4394V26.4573V26.4752V26.4931V26.5109V26.5288V26.5467V26.5646V26.5824V26.6003V26.6182V26.636V26.6539V26.6718V26.6897V26.7075V26.7254V26.7433V26.7612V26.779V26.7969V26.8148V26.8326V26.8505V26.8684V26.8863V26.9041V26.922V26.9399V26.9578V26.9756V27.0114V27.0293V27.0471V27.065V27.0829V27.1007V27.1186V27.1365V27.1544V27.1722V27.1901V27.208V27.2259V27.2437V27.2616V27.2795V27.2974V27.3152V27.3331V27.351V27.3689V27.3867V27.4046V27.4225V27.4404V27.4582V27.4761V27.494V27.5119V27.5297V27.5476V27.5655V27.5834V27.6012V27.6191V27.637V27.6549V27.6727V27.6906V27.7085V27.7264V27.7442V27.7621V27.78V27.7979V27.8158V27.8336V27.8515V27.8694V27.8873V27.9051V27.923V27.9409V27.9588V27.9766V27.9945V28.0124V28.0303V28.0482V28.066V28.0839V28.1018V28.1197V28.1375V28.1554V28.1733V28.1912V28.2091V28.2269V28.2448V28.2627V28.2806V28.2984V28.3163V28.3342V28.3521V28.37V28.3878V28.4057V28.4236V28.4415V28.4594V28.4772V28.4951V28.513V28.5309V28.5488V28.5666V28.5845V28.6024V28.6203V28.6382V28.656V28.6739V28.6918V28.7097V28.7276V28.7455V28.7633V28.7812V28.7991V28.817V28.8349V28.8527V28.8706V28.8885V28.9064V28.9243V28.9422V28.96V28.9779V28.9958V29.0137V29.0316V29.0495V29.0673V29.0852V29.1031V29.121V29.1389V29.1568V29.1746V29.1925V29.2104V29.2283V29.2462V29.2641V29.2819V29.2998V29.3177V29.3356V29.3535V29.3714V29.3893V29.4071V29.425V29.4429V29.4608V29.4787V29.4966V29.5145V29.5323V29.5502V29.5681V29.586V29.6039V29.6218V29.6397V29.6576V29.6754V29.6933V29.7112V29.7291V29.747V29.7649V29.7828V29.8007V29.8186V29.8364V29.8543V29.8722V29.8901V29.908V29.9259V29.9438V29.9617V29.9796V29.9975V30.0153V30.0332V30.0511V30.0689V30.0867V30.1044V30.1222V30.14V30.1578V30.1755V30.1933V30.2111V30.2289V30.2466V30.2644V30.2822V30.3V30.3177V30.3355V30.3533V30.371V30.3888V30.4066V30.4244V30.4421V30.4599V30.4777V30.4955V30.5132V30.531V30.5488V30.5666V30.5843V30.6021V30.6199V30.6376V30.6554V30.6732V30.691V30.7087V30.7265V30.7443V30.7621V30.7798V30.7976V30.8154V30.8332V30.8509V30.8687V30.8865V30.9042V30.922V30.9398V30.9576V30.9753V30.9931V31.0109V31.0287V31.0464V31.0642V31.082V31.0998V31.1175V31.1353V31.1531V31.1708V31.1886V31.2064V31.2242V31.2419V31.2597V31.2775V31.2953V31.313V31.3308V31.3486V31.3664V31.3841V31.4019V31.4197V31.4374V31.4552V31.473V31.4908V31.5085V31.5263V31.5441V31.5619V31.5796V31.5974V31.6152V31.633V31.6507V31.6685V31.6863V31.704V31.7218V31.7396V31.7574V31.7751V31.7929V31.8107V31.8285V31.8462V31.864V31.8818V31.8996V31.9173V31.9351V31.9529V31.9706V31.9884V32.0062V32.024V32.0417V32.0595V32.0773V32.0951V32.1128V32.1306V32.1484V32.1662V32.1839V32.2017V32.2195V32.2372V32.255V32.2728V32.2906V32.3083V32.3261V32.3439V32.3617V32.3794V32.3972V32.415V32.4328V32.4505V32.4683V32.4861V32.5038V32.5216V32.5394V32.5572V32.5749V32.5927V32.6105V32.6283V32.646V32.6638V32.6816V32.6994V32.7171V32.7349V32.7527V32.7704V32.7882V32.806V32.8238V32.8415V32.8593V32.8771V32.8949V32.9126V32.9304V32.9482V32.966V32.9837V33.0015V33.0193V33.037V33.0548V33.0726V33.0904V33.1081V33.1259V33.1437V33.1615V33.1792V33.197V33.2148V33.2325V33.2503V33.2681V33.2859V33.3036V33.3214V33.3392V33.357V33.3747V33.3925V33.4103V33.4281V33.4458V33.4636V33.4814V33.4991V33.5169V33.5347V33.5525V33.5702V33.588V33.6058V33.6236V33.6413V33.6591V33.6769V33.6947V33.7124V33.7302V33.748V33.7657V33.7835V33.8013V33.8191V33.8368V33.8546V33.8724V33.8902V33.9079V33.9257V33.9435V33.9613V33.979V33.9968V34.0146V34.0323V34.0501V34.0679V34.0857V34.1034V34.1212V34.139V34.1568V34.1745V34.1923V34.2101V34.2279V34.2456V34.2634V34.2812V34.2989V34.3167V34.3345V34.3523V34.37V34.3878V34.4056V34.4234V34.4411V34.4589V34.4767V34.4945V34.5122V34.53V34.5478V34.5655V34.5833V34.6011V34.6189V34.6366V34.6544V34.6722V34.69V34.7077V34.7255V34.7433V34.7611V34.7788V34.7966V34.8144V34.8321V34.8499V34.8677V34.8855V34.9032V34.921V34.9388V34.9566V34.9743V34.9921V35.0099V35.0277V35.0454V35.0632V35.081V35.0987V35.1165V35.1343V35.1521V35.1698V35.1876V35.2054V35.2232V35.2409V35.2587V35.2765V35.2943V35.312V35.3298V35.3476V35.3653V35.3831V35.4009V35.4187V35.4364V35.4542V35.472V35.4898V35.5075V35.5253V35.5431V35.5609V35.5786V35.5964V35.6142V35.6319V35.6497V35.6675V35.6853V35.703V35.7208V35.7386V35.7564V35.7741V35.7919V35.8097V35.8275V35.8452V35.863V35.8808V35.8985V35.9163V35.9341V35.9519V35.9696V35.9874V36.0052V36.023V36.0407V36.0585V36.0763V36.0941V36.1118V36.1296V36.1474V36.1651V36.1829V36.2007V36.2185V36.2362V36.254V36.2718V36.2896V36.3073V36.3251V36.3429V36.3607V36.3784V36.3962V36.414V36.4317V36.4495V36.4673V36.4851V36.5028V36.5206V36.5384V36.5562V36.5739V36.5917V36.6095V36.6273V36.645V36.6628V36.6806V36.6983V36.7161V36.7339V36.7517V36.7694V36.7872V36.805V36.8228V36.8405V36.8583V36.8761V36.8939V36.9116V36.9294V36.9472V36.9649V36.9827V37.0005V37.0183V37.036V37.0538V37.0716V37.0894V37.1071V37.1249V37.1427V37.1605V37.1782V37.196V37.2138V37.2315V37.2493V37.2671V37.2849V37.3026V37.3204V37.3382V37.356V37.3737V37.3915V37.4093V37.4271V37.4448V37.4626V37.4804V37.4981V37.5159V37.5337V37.5515V37.5692V37.587V37.6048V37.6226V37.6403V37.6581V37.6759V37.6937V37.7114V37.7292V37.747V37.7647V37.7825V37.8003V37.8181V37.8358V37.8536V37.8714V37.8892V37.9069V37.9247V37.9425V37.9603V37.978V37.9958V38.0136V38.0313V38.0491V38.0669V38.0847V38.1024V38.1202V38.138V38.1558V38.1735V38.1913V38.2091V38.2269V38.2446V38.2624V38.2802V38.2979V38.3157V38.3335V38.3513V38.369V38.3868V38.4046V38.4224V38.4401V38.4579V38.4757V38.4935V38.5112V38.529V38.5468V38.5645V38.5823V38.6001V38.6179V38.6356V38.6534V38.6712V38.689V38.7067V38.7245V38.7423V38.76V38.7778V38.7956V38.8134V38.8311V38.8489V38.8667V38.8845V38.9022V38.92V38.9378V38.9556V38.9733V38.9911V39.0089V39.0266V39.0444V39.0622V39.08V39.0977V39.1155V39.1333V39.1511C27.6827 39.9119 27.4656 40.4103 27.1547 40.7185C26.8433 41.0272 26.3392 41.243 25.5695 41.2402Z" fill="#FCFCFC" stroke="#FCFCFC" stroke-width="1.5"/>
<path d="M39.5681 30.0164C39.5681 33.0698 39.5681 36.1232 39.5681 39.1699C39.5681 40.9511 38.5235 41.9956 36.7423 41.9956C36.4008 41.9956 36.0593 42.0157 35.7245 41.9622C34.4255 41.7479 33.5684 40.6832 33.5684 39.3038C33.5617 35.1657 33.5684 31.0208 33.5684 26.8827C33.5684 24.827 33.5617 22.778 33.5684 20.7223C33.5751 19.0885 34.6532 18.0104 36.287 18.0037C36.662 18.0037 37.0437 17.9836 37.4052 18.0372C38.6775 18.2381 39.5547 19.3027 39.5614 20.6419C39.5748 23.769 39.5681 26.8894 39.5681 30.0164Z" fill="#FCFCFC"/>
</svg>
