<svg width="61" height="60" viewBox="0 0 61 60" fill="none" xmlns="http://www.w3.org/2000/svg">
<rect x="0.5" width="60" height="60" rx="30" fill="#6366F1"/>
<path d="M24.4045 18.793L24.4045 18.7929C23.723 18.6302 23.1742 18.9256 22.947 19.5559C22.7889 19.9979 22.7159 20.5193 22.7098 21.0449C22.6898 23.2806 22.6923 25.5113 22.6948 27.7483C22.6956 28.4954 22.6965 29.2431 22.6965 29.992C22.6965 30.9778 22.6957 31.963 22.695 32.9479C22.6935 34.9163 22.692 36.8834 22.6965 38.8514L22.6965 38.8531C22.6965 39.1752 22.6972 39.449 22.7256 39.7098L22.7262 39.7153C22.799 40.4358 23.0919 40.8571 23.421 41.0626C23.7495 41.2675 24.2525 41.344 24.9242 41.0914L24.927 41.0903C25.1113 41.0219 25.301 40.9283 25.4944 40.8197C30.857 37.7468 36.2129 34.6738 41.5755 31.5941C41.7691 31.48 41.9553 31.3498 42.1221 31.2109L42.1242 31.2091C42.6299 30.7908 42.8086 30.3541 42.8067 29.991C42.8047 29.6281 42.6217 29.1935 42.1109 28.7805C41.9091 28.618 41.6763 28.4657 41.4314 28.3249L24.4045 18.793ZM24.4045 18.793L24.4181 18.796M24.4045 18.793L24.4181 18.796M24.4181 18.796C24.8268 18.8856 25.2441 19.0503 25.6244 19.2693L25.6244 19.2693M24.4181 18.796L25.6244 19.2693M25.6244 19.2693L25.6273 19.271M25.6244 19.2693L25.6273 19.271M25.6273 19.271C29.8787 21.6934 34.1214 24.1289 38.3635 26.564M25.6273 19.271L38.3635 26.564M38.3635 26.564C39.3861 27.151 40.4087 27.738 41.4313 28.3248L38.3635 26.564Z" fill="#FCFCFC" stroke="#FCFCFC" stroke-width="1.5"/>
</svg>
