<svg width="20" height="20" viewBox="0 0 20 20" fill="none" xmlns="http://www.w3.org/2000/svg">
<path d="M18.5499 10.0307C18.5499 12.3891 18.5556 14.7447 18.5443 17.1031C18.5414 17.449 18.5046 17.8061 18.4054 18.135C18.207 18.7898 17.6344 19.1016 16.9796 18.9145C16.6507 18.8209 16.3219 18.665 16.0385 18.4723C12.7644 16.2329 9.49893 13.985 6.23342 11.7343C6.052 11.6096 5.87625 11.4679 5.72602 11.3091C4.9805 10.5324 4.9805 9.47795 5.72885 8.70976C5.90743 8.52835 6.11436 8.36961 6.32413 8.22504C9.52727 6.01118 12.7361 3.79733 15.9506 1.59764C16.2624 1.38505 16.6167 1.20363 16.9767 1.09591C17.6003 0.914495 18.1588 1.2093 18.3714 1.82725C18.4847 2.16174 18.5386 2.53308 18.5414 2.88741C18.5556 5.27134 18.5499 7.65244 18.5499 10.0307Z" fill="#414357"/>
<path d="M1.45421 9.99921C1.45421 7.41969 1.45988 4.83733 1.44854 2.2578C1.44571 1.77591 1.55342 1.35072 2.02397 1.15796C2.54838 0.945361 3.0983 0.917015 3.59153 1.26284C3.892 1.47261 3.97988 1.79575 3.97704 2.15575C3.97137 4.43197 3.97421 6.70819 3.97421 8.98725C3.97421 11.9069 3.96854 14.8266 3.97988 17.7435C3.98271 18.2424 3.86366 18.6789 3.37326 18.8575C2.84885 19.0502 2.29326 19.0871 1.80854 18.7157C1.51657 18.4946 1.44854 18.1687 1.45137 17.8115C1.45421 15.2093 1.45421 12.6043 1.45421 9.99921Z" fill="#414357"/>
</svg>
