<svg width="48" height="46" viewBox="0 0 48 46" fill="none" xmlns="http://www.w3.org/2000/svg">
<rect y="0.0375977" width="47.4995" height="45.9246" rx="22.9623" fill="#6366F1"/>
<path d="M21.1903 25.3445C20.7938 25.0541 20.3023 25.1602 19.9616 25.607C19.6544 26.0147 19.3249 26.4503 19.0066 26.9139C18.1018 28.2096 16.8843 28.824 15.2814 28.7905C14.6502 28.7793 14.0135 28.7849 13.4439 28.7905C13.1367 28.7961 12.8798 28.8854 12.7122 29.0586C12.5726 29.2038 12.5 29.3937 12.5 29.6171C12.5 30.1086 12.8742 30.4325 13.4495 30.4381C13.5779 30.4381 13.712 30.4381 13.846 30.4381C13.98 30.4381 14.1085 30.4381 14.2369 30.4381C14.4715 30.4381 14.7005 30.4381 14.9351 30.4381C15.1361 30.4381 15.3428 30.4381 15.5494 30.4381C17.2585 30.399 18.6659 29.7846 19.7326 28.6062C20.1571 28.137 20.5369 27.6176 20.8999 27.1094C21.0228 26.9362 21.1457 26.7687 21.2741 26.5956C21.6148 26.1488 21.5813 25.6405 21.1903 25.3445Z" fill="#FCFCFC"/>
<path d="M24.6812 20.5528C24.8376 20.6701 25.0051 20.7259 25.1727 20.7259C25.4352 20.7259 25.6977 20.5807 25.9099 20.2959C26.1165 20.0222 26.3232 19.7374 26.5243 19.4637C26.675 19.2515 26.837 19.0337 26.9934 18.8214C27.6245 17.9781 28.3841 17.481 29.2498 17.347C29.5737 17.2967 30.0205 17.2632 30.3835 17.2409V19.4358C30.3835 19.7597 30.4896 20.0278 30.8024 20.1619C31.1543 20.3127 31.4614 20.2345 31.7239 19.9664C32.7181 18.9722 33.7122 17.9837 34.7063 16.9896C35.1029 16.5818 35.0973 16.1965 34.6896 15.7776C33.7066 14.7946 32.7237 13.8172 31.7407 12.8287C31.4949 12.5774 31.2157 12.4545 30.8694 12.5997C30.5678 12.7337 30.417 12.946 30.3835 13.2532C30.3779 13.2978 30.3779 13.3537 30.3779 13.4095C30.3835 13.5603 30.3835 13.7167 30.3835 13.8731C30.3891 14.4093 30.3835 14.9622 30.3835 15.5486C28.7639 15.5877 27.2782 16.1295 26.2729 17.1683C25.7982 17.6598 25.3905 18.2238 24.9884 18.7656C24.8543 18.9499 24.7147 19.1398 24.5751 19.3297C24.2567 19.7597 24.3014 20.2624 24.6812 20.5528Z" fill="#FCFCFC"/>
<path d="M31.7408 26.0435C31.495 25.7978 31.2102 25.6693 30.8695 25.8201C30.5735 25.9542 30.4171 26.172 30.3836 26.4736C30.378 26.5183 30.378 26.5741 30.378 26.6244C30.3836 26.7808 30.3836 26.9316 30.3836 27.0879C30.3892 27.6241 30.3836 28.1714 30.3836 28.7635C30.1714 28.7579 29.9089 28.7523 29.7413 28.7355C28.5908 28.6238 27.6413 28.0542 26.9041 27.0321C26.6305 26.6579 26.3568 26.2837 26.0775 25.9151L25.7592 25.485C25.3124 24.8763 24.86 24.2619 24.4132 23.6476C23.084 21.8436 21.7044 19.9726 20.364 18.1295C19.4537 16.8785 18.3813 16.1077 17.0856 15.7615C15.9686 15.4655 14.8181 15.5101 13.6955 15.5548C13.5335 15.566 13.3716 15.5716 13.204 15.5772C13.0197 15.5827 12.8521 15.6665 12.7237 15.8006C12.5785 15.9625 12.4947 16.1803 12.5059 16.4093C12.5226 16.8394 12.8466 17.1633 13.2766 17.1801C13.958 17.2024 14.5891 17.208 15.1979 17.1912C15.2593 17.1912 15.3152 17.1857 15.3654 17.1857C16.9125 17.1857 18.1188 17.8279 19.0683 19.146C20.068 20.5311 21.1013 21.9274 22.101 23.2845C23.1901 24.7701 24.3238 26.2949 25.4129 27.8196C26.6416 29.5174 28.373 30.3719 30.378 30.439V32.6562C30.378 32.9802 30.4841 33.2538 30.8025 33.3879C31.1543 33.5387 31.4615 33.4549 31.724 33.1924C32.7182 32.1983 33.7123 31.2097 34.7008 30.21C35.103 29.8023 35.0974 29.4169 34.6841 28.998C33.7067 28.0095 32.7237 27.0321 31.7408 26.0435Z" fill="#FCFCFC"/>
</svg>
