<svg width="46" height="46" viewBox="0 0 46 46" fill="none" xmlns="http://www.w3.org/2000/svg">
<rect x="0.973145" y="0.500488" width="45.0271" height="44.9995" rx="22.4997" fill="#6366F1"/>
<path d="M28.4976 16.3386C28.4976 15.4864 28.508 14.712 28.4924 13.9377C28.4872 13.5272 28.6483 13.231 29.0225 13.0699C29.3915 12.9088 29.7033 13.0439 29.9683 13.3141C31.0336 14.3794 32.099 15.4396 33.1539 16.5049C33.6008 16.9518 33.606 17.3728 33.1695 17.8145C32.099 18.8954 31.0232 19.9659 29.9527 21.0365C29.6669 21.3275 29.3343 21.4158 28.9549 21.2547C28.6068 21.104 28.4924 20.8026 28.4924 20.4389C28.4976 19.6489 28.4924 18.859 28.4924 18.0172C28.3105 18.0068 28.1546 17.9964 27.9935 17.9964C24.3506 17.9964 20.7025 17.9964 17.0596 17.9964C15.8072 17.9964 15.1628 18.646 15.1524 19.9088C15.1472 20.3973 15.168 20.8806 15.142 21.3639C15.116 21.868 14.799 22.159 14.3313 22.1694C13.8688 22.1746 13.5102 21.8784 13.4946 21.3899C13.4738 20.6883 13.4478 19.9815 13.5258 19.2956C13.7337 17.5339 15.1108 16.3438 16.8829 16.3438C20.557 16.3386 24.2363 16.3438 27.9104 16.3438C28.0871 16.3386 28.269 16.3386 28.4976 16.3386Z" fill="#FCFCFC"/>
<path d="M18.4835 29.6577C18.4835 30.5099 18.4783 31.2842 18.4835 32.0585C18.4887 32.4379 18.39 32.7601 18.021 32.9212C17.6209 33.0927 17.2883 32.9732 16.9921 32.6718C15.9423 31.6168 14.8874 30.5671 13.8376 29.5121C13.3699 29.0444 13.3647 28.6339 13.822 28.1714C14.8718 27.1164 15.9267 26.0667 16.9765 25.0118C17.2571 24.7311 17.5637 24.57 17.9535 24.7363C18.3484 24.9078 18.4887 25.2248 18.4835 25.651C18.4679 26.4097 18.4783 27.1684 18.4783 27.9843C18.655 27.9947 18.8161 28.0051 18.9772 28.0051C22.6201 28.0051 26.2683 28.0051 29.9112 28.0051C31.1636 28.0051 31.808 27.3555 31.8184 26.0927C31.8184 25.6198 31.808 25.1521 31.8236 24.6792C31.8444 24.1439 32.1562 23.8373 32.6395 23.8321C33.1228 23.8269 33.4658 24.1335 33.4813 24.6584C33.4969 25.3392 33.5281 26.0303 33.445 26.7059C33.2371 28.4624 31.86 29.6577 30.0879 29.6628C26.4138 29.668 22.7345 29.6628 19.0604 29.6628C18.8941 29.6577 18.7122 29.6577 18.4835 29.6577Z" fill="#FCFCFC"/>
</svg>
