<svg width="25" height="26" viewBox="0 0 25 26" fill="none" xmlns="http://www.w3.org/2000/svg">
<path d="M9.94058 15.3445C9.54404 15.0541 9.05255 15.1602 8.71187 15.607C8.40469 16.0147 8.07517 16.4503 7.75682 16.9139C6.85205 18.2096 5.63451 18.824 4.0316 18.7905C3.40049 18.7793 2.76379 18.7849 2.19412 18.7905C1.88694 18.7961 1.63003 18.8854 1.46248 19.0586C1.32285 19.2038 1.25024 19.3937 1.25024 19.6171C1.25024 20.1086 1.62444 20.4325 2.1997 20.4381C2.32816 20.4381 2.4622 20.4381 2.59624 20.4381C2.73028 20.4381 2.85874 20.4381 2.98719 20.4381C3.22177 20.4381 3.45075 20.4381 3.68532 20.4381C3.88639 20.4381 4.09303 20.4381 4.29968 20.4381C6.0087 20.399 7.41614 19.7846 8.48288 18.6062C8.90734 18.137 9.28713 17.6176 9.65015 17.1094C9.77302 16.9362 9.8959 16.7687 10.0244 16.5956C10.365 16.1488 10.3315 15.6405 9.94058 15.3445Z" fill="#414357"/>
<path d="M13.4312 10.5528C13.5876 10.6701 13.7551 10.7259 13.9227 10.7259C14.1852 10.7259 14.4477 10.5807 14.6599 10.2959C14.8665 10.0222 15.0732 9.7374 15.2743 9.46373C15.425 9.2515 15.587 9.03368 15.7434 8.82145C16.3745 7.97811 17.1341 7.48104 17.9998 7.347C18.3237 7.29673 18.7705 7.26322 19.1335 7.24088V9.4358C19.1335 9.75974 19.2396 10.0278 19.5524 10.1619C19.9043 10.3127 20.2114 10.2345 20.4739 9.96638C21.4681 8.97224 22.4622 7.98369 23.4563 6.98955C23.8529 6.58184 23.8473 6.19648 23.4396 5.7776C22.4566 4.79463 21.4737 3.81725 20.4907 2.82869C20.2449 2.57737 19.9657 2.4545 19.6194 2.59971C19.3178 2.73375 19.167 2.94598 19.1335 3.25316C19.1279 3.29784 19.1279 3.35369 19.1279 3.40954C19.1335 3.56033 19.1335 3.71672 19.1335 3.8731C19.1391 4.40926 19.1335 4.96218 19.1335 5.54861C17.5139 5.58771 16.0282 6.12946 15.0229 7.16827C14.5482 7.65976 14.1405 8.22385 13.7384 8.7656C13.6043 8.9499 13.4647 9.1398 13.3251 9.32969C13.0067 9.75974 13.0514 10.2624 13.4312 10.5528Z" fill="#414357"/>
<path d="M20.491 16.0433C20.2453 15.7976 19.9604 15.6691 19.6197 15.8199C19.3237 15.9539 19.1674 16.1718 19.1338 16.4733C19.1283 16.518 19.1283 16.5739 19.1283 16.6241C19.1339 16.7805 19.1338 16.9313 19.1338 17.0877C19.1394 17.6239 19.1338 18.1712 19.1338 18.7632C18.9216 18.7576 18.6591 18.752 18.4916 18.7353C17.3411 18.6236 16.3916 18.0539 15.6544 17.0318C15.3807 16.6576 15.107 16.2835 14.8278 15.9148L14.5094 15.4848C14.0626 14.876 13.6102 14.2617 13.1634 13.6473C11.8342 11.8433 10.4547 9.97235 9.11428 8.12928C8.20392 6.87823 7.13159 6.1075 5.83586 5.76122C4.71885 5.46522 3.56833 5.5099 2.44573 5.55458C2.28377 5.56575 2.1218 5.57133 1.95425 5.57692C1.76994 5.5825 1.60239 5.66628 1.47394 5.80032C1.32873 5.96229 1.24495 6.1801 1.25612 6.40909C1.27287 6.83914 1.59681 7.16307 2.02686 7.17983C2.70823 7.20217 3.33934 7.20775 3.94811 7.191C4.00955 7.191 4.0654 7.18541 4.11566 7.18541C5.66272 7.18541 6.86909 7.82769 7.81855 9.14576C8.81827 10.5309 9.8515 11.9271 10.8512 13.2843C11.9403 14.7699 13.0741 16.2946 14.1632 17.8193C15.3919 19.5172 17.1232 20.3717 19.1283 20.4387V22.656C19.1283 22.9799 19.2344 23.2536 19.5527 23.3876C19.9046 23.5384 20.2118 23.4546 20.4743 23.1922C21.4684 22.198 22.4625 21.2095 23.4511 20.2097C23.8532 19.802 23.8476 19.4167 23.4343 18.9978C22.457 18.0092 21.474 17.0318 20.491 16.0433Z" fill="#414357"/>
</svg>
