<svg width="25" height="25" viewBox="0 0 25 25" fill="none" xmlns="http://www.w3.org/2000/svg">
<path d="M20.5718 6.73201H14.1802V4.21724C14.1512 3.91667 13.9962 3.69625 13.7057 3.56601C13.3764 3.41572 13.1053 3.53595 12.8632 3.78642C11.9141 4.7783 10.9651 5.76017 10.016 6.74203C9.60926 7.16282 9.59958 7.55356 9.98695 7.96434C10.9457 8.96624 11.9044 9.95812 12.8728 10.95C13.1246 11.2105 13.4248 11.3007 13.7638 11.1404C14.0737 11.0101 14.1705 10.7396 14.1705 10.409V7.98438H20.5621C21.7823 7.98438 22.7798 9.01634 22.7798 10.2787V17.9633C22.7798 19.2257 21.792 20.2476 20.5621 20.2476H4.42821C3.208 20.2476 2.21053 19.2257 2.21053 17.9633V10.2787C2.21053 9.00632 3.19832 7.98438 4.42821 7.98438H5.232C5.57095 7.98438 5.83242 7.70385 5.83242 7.3632C5.83242 7.02256 5.56126 6.73201 5.232 6.73201H4.42821C2.53979 6.73201 1 8.32503 1 10.2787V17.9633C1 19.917 2.53979 21.5 4.42821 21.5H20.5718C22.4602 21.5 24 19.917 24 17.9633V10.2787C23.9903 8.32503 22.4505 6.73201 20.5718 6.73201Z" fill="#414357"/>
</svg>
